<mxfile host="app.diagrams.net" modified="2021-11-21T10:29:30.898Z" agent="5.0 (Windows NT 10.0; Win64; x64) AppleWebKit/537.36 (KHTML, like Gecko) Chrome/95.0.4638.69 Safari/537.36 Edg/95.0.1020.53" etag="ZHZO__2t8_ZOPTJBtFiw" version="15.7.3" type="github">
  <diagram id="LF02aArohuGkMqN7xxVO" name="第 1 页">
    <mxGraphModel dx="813" dy="435" grid="1" gridSize="10" guides="1" tooltips="1" connect="1" arrows="1" fold="1" page="1" pageScale="1" pageWidth="827" pageHeight="1169" math="0" shadow="0">
      <root>
        <mxCell id="0" />
        <mxCell id="1" parent="0" />
        <mxCell id="QSF2X8id9F-HUwGCcCJs-4" value="" style="edgeStyle=orthogonalEdgeStyle;rounded=0;orthogonalLoop=1;jettySize=auto;html=1;" edge="1" parent="1" source="QSF2X8id9F-HUwGCcCJs-1" target="QSF2X8id9F-HUwGCcCJs-3">
          <mxGeometry relative="1" as="geometry" />
        </mxCell>
        <mxCell id="QSF2X8id9F-HUwGCcCJs-1" value="用户登录" style="rounded=1;whiteSpace=wrap;html=1;" vertex="1" parent="1">
          <mxGeometry x="360" y="40" width="120" height="60" as="geometry" />
        </mxCell>
        <mxCell id="QSF2X8id9F-HUwGCcCJs-6" value="" style="edgeStyle=orthogonalEdgeStyle;rounded=0;orthogonalLoop=1;jettySize=auto;html=1;" edge="1" parent="1" source="QSF2X8id9F-HUwGCcCJs-3" target="QSF2X8id9F-HUwGCcCJs-5">
          <mxGeometry relative="1" as="geometry" />
        </mxCell>
        <mxCell id="QSF2X8id9F-HUwGCcCJs-8" value="" style="edgeStyle=orthogonalEdgeStyle;rounded=0;orthogonalLoop=1;jettySize=auto;html=1;" edge="1" parent="1" source="QSF2X8id9F-HUwGCcCJs-3" target="QSF2X8id9F-HUwGCcCJs-7">
          <mxGeometry relative="1" as="geometry">
            <Array as="points">
              <mxPoint x="420" y="290" />
              <mxPoint x="560" y="290" />
            </Array>
          </mxGeometry>
        </mxCell>
        <mxCell id="QSF2X8id9F-HUwGCcCJs-3" value="进入个人中心" style="whiteSpace=wrap;html=1;rounded=1;" vertex="1" parent="1">
          <mxGeometry x="360" y="180" width="120" height="60" as="geometry" />
        </mxCell>
        <mxCell id="QSF2X8id9F-HUwGCcCJs-5" value="编辑主页" style="whiteSpace=wrap;html=1;rounded=1;" vertex="1" parent="1">
          <mxGeometry x="240" y="340" width="120" height="60" as="geometry" />
        </mxCell>
        <mxCell id="QSF2X8id9F-HUwGCcCJs-7" value="编辑个人设置" style="whiteSpace=wrap;html=1;rounded=1;" vertex="1" parent="1">
          <mxGeometry x="500" y="340" width="120" height="60" as="geometry" />
        </mxCell>
      </root>
    </mxGraphModel>
  </diagram>
</mxfile>
